# xmcd
# 
# Track frame offsets:
#     150
#     10652
#     28804
#     49056
#     70733
# 
# Disc length: 1104
# 
# Revision: 0
# Processed by: cddbd v1.5.2PL0 Copyright (c) Steve Scherf et al.
# Submitted via: fre:ac v1.0.17
# 
DISCID=37044e05
DTITLE=Rob Crusoe Band - Rob Crusoe Band - Live
DYEAR=2000
DGENRE=Blues
TTITLE0=I Feel Good
TTITLE1=Hey Bartender
TTITLE2=How Blue Can You Get?
TTITLE3=You Can Leave Your Hat On
TTITLE4=Sweet Soul Music
EXTD=
EXTT0=
EXTT1=
EXTT2=
EXTT3=
EXTT4=
PLAYORDER=
